<svg xmlns="http://www.w3.org/2000/svg" xmlns:xlink="http://www.w3.org/1999/xlink" preserveAspectRatio="xMidYMid" width="20" height="20.03" viewBox="0 0 20 20.03">
  <defs>
    <style>
      .cls-1 {
        fill: #f5989d;
        fill-rule: evenodd;
      }
    </style>
  </defs>
  <path d="M10.001,20.029 C4.477,20.029 -0.000,15.549 -0.000,10.022 C-0.000,4.496 4.477,0.015 10.001,0.015 C15.524,0.015 20.002,4.496 20.002,10.022 C20.002,15.549 15.524,20.029 10.001,20.029 ZM16.689,7.195 C16.507,6.764 16.282,6.348 16.019,5.961 C15.760,5.576 15.462,5.215 15.134,4.886 C14.805,4.558 14.444,4.261 14.060,4.000 C13.672,3.737 13.257,3.512 12.826,3.330 C12.388,3.144 11.929,3.002 11.463,2.907 C10.984,2.809 10.493,2.759 10.001,2.759 C9.509,2.759 9.017,2.809 8.539,2.907 C8.072,3.002 7.613,3.144 7.175,3.330 C6.745,3.512 6.329,3.737 5.942,4.000 C5.558,4.261 5.196,4.558 4.868,4.886 C4.540,5.215 4.242,5.576 3.982,5.961 C3.721,6.348 3.495,6.764 3.313,7.195 C3.127,7.633 2.985,8.093 2.889,8.560 C2.792,9.038 2.742,9.530 2.742,10.022 C2.742,10.515 2.792,11.006 2.889,11.484 C2.985,11.952 3.127,12.411 3.313,12.850 C3.495,13.281 3.721,13.696 3.982,14.083 C4.242,14.468 4.540,14.829 4.868,15.158 C5.196,15.486 5.558,15.784 5.942,16.044 C6.329,16.306 6.745,16.532 7.175,16.714 C7.613,16.899 8.072,17.041 8.539,17.137 C9.017,17.236 9.509,17.286 10.001,17.286 C10.493,17.286 10.984,17.236 11.463,17.137 C11.929,17.041 12.388,16.899 12.826,16.714 C13.257,16.532 13.672,16.306 14.060,16.044 C14.444,15.784 14.805,15.486 15.134,15.158 C15.462,14.829 15.760,14.468 16.019,14.083 C16.282,13.696 16.507,13.281 16.689,12.850 C16.874,12.411 17.016,11.952 17.112,11.484 C17.210,11.006 17.260,10.515 17.260,10.022 C17.260,9.530 17.210,9.038 17.112,8.560 C17.016,8.093 16.874,7.633 16.689,7.195 ZM11.880,9.757 C11.837,9.651 11.792,9.545 11.747,9.436 C11.618,9.133 11.479,8.832 11.335,8.536 C13.782,7.536 14.776,6.099 14.788,6.082 C15.658,7.139 16.183,8.488 16.198,9.959 C16.108,9.941 14.010,9.489 11.880,9.757 ZM10.857,7.613 C9.798,5.665 8.633,4.119 8.540,3.994 C9.008,3.881 9.497,3.820 10.001,3.820 C11.570,3.820 13.003,4.404 14.095,5.367 C14.080,5.390 13.197,6.735 10.857,7.613 ZM3.935,8.744 C4.337,6.823 5.627,5.229 7.356,4.412 C7.438,4.522 8.585,6.079 9.658,7.986 C6.681,8.778 4.098,8.745 3.935,8.744 ZM8.515,4.000 L8.517,4.000 C8.509,4.001 8.503,4.002 8.496,4.005 C8.508,4.002 8.515,4.000 8.515,4.000 ZM10.171,8.941 C10.349,9.290 10.519,9.643 10.674,9.995 C10.593,10.019 10.511,10.043 10.430,10.070 C7.085,11.153 5.388,14.164 5.388,14.164 C5.388,14.164 5.389,14.166 5.390,14.167 C4.403,13.069 3.802,11.616 3.802,10.022 C3.802,9.956 3.805,9.891 3.807,9.825 C3.917,9.829 6.980,9.898 10.171,8.941 ZM11.056,11.037 C11.069,11.032 11.083,11.028 11.097,11.023 C11.969,13.292 12.329,15.191 12.421,15.733 C11.677,16.050 10.859,16.225 10.001,16.225 C8.563,16.225 7.243,15.731 6.192,14.909 C6.203,14.885 7.397,12.313 11.056,11.037 ZM6.191,14.912 C6.191,14.912 6.134,14.870 6.052,14.803 C6.097,14.841 6.146,14.874 6.192,14.909 L6.191,14.912 ZM16.121,11.006 C15.846,12.734 14.857,14.227 13.465,15.167 C13.402,14.793 13.071,12.972 12.258,10.736 C14.259,10.415 15.994,10.964 16.121,11.006 Z" class="cls-1"/>
</svg>
