<svg xmlns="http://www.w3.org/2000/svg" xmlns:xlink="http://www.w3.org/1999/xlink" preserveAspectRatio="xMidYMid" width="20" height="19.97" viewBox="0 0 20 19.97">
  <defs>
    <style>
      .cls-1 {
        fill: #7bb7bf;
        fill-rule: evenodd;
      }
    </style>
  </defs>
  <path d="M9.998,-0.010 C4.481,-0.010 0.009,4.466 0.009,9.984 C0.009,15.504 4.481,19.978 9.998,19.978 C15.514,19.978 19.986,15.504 19.986,9.984 C19.986,4.466 15.514,-0.010 9.998,-0.010 ZM12.642,9.942 L10.912,9.942 C10.912,12.708 10.912,16.114 10.912,16.114 L8.348,16.114 C8.348,16.114 8.348,12.743 8.348,9.942 L7.129,9.942 L7.129,7.763 L8.348,7.763 L8.348,6.351 C8.348,5.341 8.828,3.763 10.936,3.763 L12.834,3.770 L12.834,5.887 C12.834,5.887 11.680,5.887 11.455,5.887 C11.231,5.887 10.912,5.999 10.912,6.480 L10.912,7.763 L12.866,7.763 L12.642,9.942 Z" class="cls-1"/>
</svg>
