<svg xmlns="http://www.w3.org/2000/svg" xmlns:xlink="http://www.w3.org/1999/xlink" preserveAspectRatio="xMidYMid" width="20" height="20" viewBox="0 0 20 20">
  <defs>
    <style>
      .cls-1 {
        fill: #9aac49;
        fill-rule: evenodd;
      }
    </style>
  </defs>
  <path d="M9.996,-0.011 C4.475,-0.011 -0.001,4.469 -0.001,9.992 C-0.001,15.517 4.475,19.995 9.996,19.995 C15.517,19.995 19.993,15.517 19.993,9.992 C19.993,4.469 15.517,-0.011 9.996,-0.011 ZM15.371,15.267 C15.319,15.345 15.230,15.394 15.135,15.394 L10.633,15.394 L10.633,13.549 L12.725,12.493 L12.567,12.180 L10.633,13.155 L10.633,12.190 L11.845,11.580 L11.687,11.265 L10.633,11.797 L10.633,10.488 L9.482,10.488 L9.482,12.480 L8.472,11.779 L8.271,12.069 L9.482,12.907 L9.482,15.394 L4.963,15.394 C4.868,15.394 4.779,15.345 4.727,15.267 C4.675,15.188 4.667,15.087 4.705,15.000 L9.800,3.297 C9.845,3.194 9.946,3.128 10.058,3.128 L10.058,3.128 C10.170,3.128 10.271,3.194 10.316,3.297 L15.394,15.000 C15.432,15.087 15.423,15.188 15.371,15.267 Z" class="cls-1"/>
</svg>
