<svg xmlns="http://www.w3.org/2000/svg" xmlns:xlink="http://www.w3.org/1999/xlink" preserveAspectRatio="xMidYMid" width="16" height="25" viewBox="0 0 16 25">
  <defs>
    <style>
      .cls-1 {
        fill: #fff;
        filter: url(#filter-chain-1);
        fill-rule: evenodd;
      }
    </style>

    <filter id="filter-chain-1" filterUnits="userSpaceOnUse">
      <feOffset dy="1" in="SourceAlpha"/>
      <feGaussianBlur result="dropBlur"/>
      <feFlood flood-color="#fff"/>
      <feComposite operator="in" in2="dropBlur" result="dropShadowComp"/>
      <feComposite in="SourceGraphic" result="shadowed"/>
      <feFlood flood-color="#86bbc1"/>
      <feComposite operator="in" in2="SourceGraphic"/>
      <feBlend in2="shadowed" result="solidFill"/>
      <feOffset dy="1" in="SourceAlpha"/>
      <feGaussianBlur result="innerShadowBlur"/>
      <feFlood flood-color="#675d53" flood-opacity="0.19"/>
      <feComposite operator="out" in2="innerShadowBlur"/>
      <feComposite operator="in" in2="SourceAlpha"/>
      <feBlend mode="multiply" in2="solidFill" result="innerShadow"/>
    </filter>
  </defs>
  <path d="M14.000,24.500 L1.999,24.500 C0.895,24.500 -0.000,23.604 -0.000,22.500 L-0.000,2.500 C-0.000,1.395 0.895,0.500 1.999,0.500 L14.000,0.500 C15.104,0.500 16.000,1.395 16.000,2.500 L16.000,22.500 C16.000,23.604 15.104,24.500 14.000,24.500 ZM7.979,23.000 C8.531,23.000 8.979,22.552 8.979,22.000 C8.979,21.447 8.531,21.000 7.979,21.000 C7.426,21.000 6.979,21.447 6.979,22.000 C6.979,22.552 7.426,23.000 7.979,23.000 ZM10.000,1.500 L5.000,1.500 L5.000,2.500 L10.062,2.500 L10.000,1.500 ZM14.000,3.500 L2.020,3.500 L1.999,19.500 L14.000,19.500 L14.000,3.500 Z" class="cls-1"/>
</svg>
