<svg xmlns="http://www.w3.org/2000/svg" xmlns:xlink="http://www.w3.org/1999/xlink" preserveAspectRatio="xMidYMid" width="27.16" height="20.719" viewBox="0 0 27.16 20.719">
  <defs>
    <style>
      .cls-1 {
        fill: #95c5c4;
        filter: url(#filter-chain-1);
        fill-rule: evenodd;
      }
    </style>

    <filter id="filter-chain-1" filterUnits="userSpaceOnUse">
      <feOffset dy="1" in="SourceAlpha"/>
      <feGaussianBlur result="dropBlur"/>
      <feFlood flood-color="#fff"/>
      <feComposite operator="in" in2="dropBlur" result="dropShadowComp"/>
      <feComposite in="SourceGraphic" result="shadowed"/>
      <feFlood flood-color="#86bbc1"/>
      <feComposite operator="in" in2="SourceGraphic"/>
      <feBlend in2="shadowed" result="solidFill"/>
      <feOffset dy="1" in="SourceAlpha"/>
      <feGaussianBlur result="innerShadowBlur"/>
      <feFlood flood-color="#675d53" flood-opacity="0.19"/>
      <feComposite operator="out" in2="innerShadowBlur"/>
      <feComposite operator="in" in2="SourceAlpha"/>
      <feBlend mode="multiply" in2="solidFill" result="innerShadow"/>
    </filter>
  </defs>
  <path d="M23.962,10.825 C23.733,11.986 23.158,13.197 22.243,14.466 C20.261,16.889 17.857,18.490 15.020,19.269 L14.969,19.269 C12.048,20.056 9.118,19.988 6.187,19.066 C3.631,18.100 1.565,16.558 0.007,14.426 C1.556,15.645 2.988,16.254 4.326,16.261 L4.359,16.246 C6.552,16.391 8.424,15.704 9.974,14.179 C9.982,14.171 9.991,14.163 9.999,14.154 L9.949,14.096 C9.051,14.136 8.440,13.865 8.102,13.282 C8.009,12.892 8.102,12.553 8.390,12.265 C8.550,12.079 8.797,11.909 9.109,11.757 C7.526,11.799 6.435,11.249 5.815,10.099 C6.290,9.590 6.899,9.346 7.636,9.386 L7.645,9.362 C5.765,8.853 4.774,7.938 4.681,6.609 C5.164,6.466 5.663,6.389 6.180,6.398 L6.180,6.372 C4.715,5.542 3.978,4.400 3.987,2.967 C5.333,3.384 6.662,3.916 7.975,4.560 C9.177,5.067 10.219,5.592 11.108,6.142 C11.862,6.567 12.488,7.091 13.013,7.718 L13.039,7.693 L13.174,7.593 C13.538,6.211 14.148,4.856 15.020,3.511 L15.037,3.467 C15.375,2.977 15.816,2.436 16.366,1.850 C16.629,1.588 16.934,1.342 17.281,1.115 C17.349,1.157 17.247,1.393 16.976,1.833 C17.704,1.216 18.398,0.904 19.042,0.885 C19.186,1.029 18.932,1.309 18.280,1.707 C18.796,1.511 19.372,1.384 19.999,1.309 C20.270,1.342 20.364,1.476 20.287,1.723 C20.067,2.028 19.330,2.308 18.085,2.579 C18.077,2.579 18.068,2.579 18.061,2.587 L18.103,2.680 C19.474,2.627 20.668,3.061 21.685,3.967 C21.702,3.985 21.718,4.000 21.735,4.010 C22.937,5.170 23.631,6.448 23.827,7.855 C24.894,8.235 25.969,8.228 27.062,7.819 C26.765,8.618 25.842,9.097 24.276,9.269 C24.267,9.258 24.267,9.258 24.267,9.269 L24.267,9.421 C25.698,9.701 26.663,9.751 27.154,9.581 L27.171,9.608 C26.510,10.471 25.444,10.877 23.962,10.825 Z" class="cls-1"/>
</svg>
